inDegrees=no
num_controls=7
num_derivatives=13
num_iterations=129
num_multipliers=7
num_parameters=0
num_slacks=7
num_states=26
objective=5.226588
objective_accelerations=0.380564
objective_balance=0.033717
objective_effort=0.178458
objective_height=4.565856
objective_ligament=0.067992
solver_duration=1429.623390
status=Solve_Succeeded
success=true
DataType=double
version=3
OpenSimVersion=4.4-2022-07-23-0e9fedc
endheader
time	/jointset/ground_pelvis/pelvis_tilt/value	/jointset/ground_pelvis/pelvis_tx/value	/jointset/ground_pelvis/pelvis_ty/value	/jointset/hip_l/hip_flexion_l/value	/jointset/hip_l/hip_adduction_l/value	/jointset/hip_l/hip_rotation_l/value	/jointset/back/lumbar_extension/value	/jointset/patellofemoral_l/patellar_flexion_l/value	/jointset/knee_l/knee_flexion_l/value	/jointset/knee_l/knee_adduction_l/value	/jointset/knee_l/knee_rotation_l/value	/jointset/ankle_l/ankle_angle_l/value	/jointset/subtalar_l/subtalar_angle_l/value	/jointset/ground_pelvis/pelvis_tilt/speed	/jointset/ground_pelvis/pelvis_tx/speed	/jointset/ground_pelvis/pelvis_ty/speed	/jointset/hip_l/hip_flexion_l/speed	/jointset/hip_l/hip_adduction_l/speed	/jointset/hip_l/hip_rotation_l/speed	/jointset/back/lumbar_extension/speed	/jointset/patellofemoral_l/patellar_flexion_l/speed	/jointset/knee_l/knee_flexion_l/speed	/jointset/knee_l/knee_adduction_l/speed	/jointset/knee_l/knee_rotation_l/speed	/jointset/ankle_l/ankle_angle_l/speed	/jointset/subtalar_l/subtalar_angle_l/speed	/forceset/tau_hip_flexion_l	/forceset/tau_hip_adduction_l	/forceset/tau_hip_rotation_l	/forceset/tau_knee_flexion_l	/forceset/tau_ankle_angle_l	/forceset/tau_subtalar_angle_l	/forceset/tau_lumbar_extension	lambda_cid13_p0	lambda_cid13_p1	lambda_cid13_p2	lambda_cid13_p3	lambda_cid13_p4	lambda_cid13_p5	lambda_cid14_p0	/jointset/ground_pelvis/pelvis_tilt/accel	/jointset/ground_pelvis/pelvis_tx/accel	/jointset/ground_pelvis/pelvis_ty/accel	/jointset/hip_l/hip_flexion_l/accel	/jointset/hip_l/hip_adduction_l/accel	/jointset/hip_l/hip_rotation_l/accel	/jointset/back/lumbar_extension/accel	/jointset/patellofemoral_l/patellar_flexion_l/accel	/jointset/knee_l/knee_flexion_l/accel	/jointset/knee_l/knee_adduction_l/accel	/jointset/knee_l/knee_rotation_l/accel	/jointset/ankle_l/ankle_angle_l/accel	/jointset/subtalar_l/subtalar_angle_l/accel	gamma_cid13_p0	gamma_cid13_p1	gamma_cid13_p2	gamma_cid13_p3	gamma_cid13_p4	gamma_cid13_p5	gamma_cid14_p0
0	-0.04506220255394079	0.07136512035597903	0.8961769849688352	0.1955292361009247	-0.3195673763630677	-0.5309213878182388	-0.137903700187828	0.0701535092838938	0.07015350928391206	-0.1745327795555894	-0.1630256022859555	-0.06701017130107029	0.006974956679792981	0	0	0	0	0	0	0	0	0	0	0	0	0	0.09600687869376408	-0.1289665594305062	-0.04279738853283072	-0.2719212858870987	0.2781738350743296	-0.01521714472988624	-0.03401695331640205	53.7298085572713	-6.912981707700907	5.465478499909284	-41.87873972949704	-523.1744374997434	-86.56289232827237	-41.21313997047166	-1.47098172844424	-0.1450064689041144	-0.57101687816919	6.159207723600547	-2.155449477248569	3.056622103343145	-2.244491363314999	8.666708176067988	8.666708176068317	0.2933266793885053	-0.2411896703824638	3.931896643186923	-0.2117502105337437	-5.096723069072807e-08	6.753061137261238e-08	1.240241225093937e-07	1.922514212707946e-08	-1.909263757457095e-08	-7.124281043716326e-08	-1.478929508342495e-08
0.01	-0.04513002504166281	0.07135820223659539	0.8961493866128848	0.1958244417690754	-0.3196732059220559	-0.5307674510119306	-0.138019094635221	0.07057492284984218	0.0705749228497079	-0.1745201928534488	-0.1630321984122173	-0.06681845421446606	0.00696378704448574	-0.01348931097608106	-0.001374808007578793	-0.005499671393872478	0.05877259365630982	-0.02105263883676255	0.0306652901372931	-0.02287853097254659	0.08390627369911997	0.08390627369911842	0.002536250316368948	-0.001299935749128435	0.03818202645291237	-0.002199302110403226	0.0922425004974398	-0.1320738579719712	-0.04183348950111279	-0.2657596051348403	0.2662935701952358	-0.007717714788653385	-0.03098191597205364	50.15661364977259	-9.436485001069682	5.744592445775962	-40.07062078017184	-524.000825025464	-92.16252673116716	-41.22101874519848	-1.27663871948954	-0.1323917383013004	-0.5364461195145611	5.695992750902386	-2.063205228214845	3.053156361878586	-2.279480190897426	8.196124001793928	8.196124001792958	0.2366383515336894	-0.07148746954513099	3.737143178981289	-0.2188508714801668	-8.517678688514381e-08	1.068198902573994e-07	1.660176341532235e-07	5.053629376897297e-08	-1.500018996007152e-07	-9.854873103556005e-08	-1.776899674224596e-08
0.02	-0.04533048722656012	0.07133780128281296	0.8960673907730906	0.196699314886699	-0.3199861686976987	-0.5303105265257436	-0.1383572636376657	0.0718241065597023	0.07182410655968531	-0.1744816708182007	-0.1630512122846259	-0.06624975935680287	0.006931658256039264	-0.02652793944445404	-0.002696566879759061	-0.01087949676871885	0.1159334898827112	-0.04142664332657695	0.06059753599283104	-0.04455491101215928	0.1655540287966515	0.1655540287966482	0.00518706638364448	-0.002483549192945946	0.07539555421136013	-0.00419183062826655	0.08847812230185902	-0.135181156513203	-0.04086959046844362	-0.2595979243820927	0.2544133053165126	-0.0002182848469758705	-0.02794687862752548	46.63764422346991	-11.97101566973045	6.027217483279937	-38.48908904594387	-524.0918317351274	-97.61186789877544	-41.24422714112178	-1.380845226904156	-0.1343966418233483	-0.547047674364122	5.836868237618287	-2.019722607860352	2.910013246992069	-2.004061176729085	8.215004455750169	8.215004455750462	0.3162398295665189	-0.2179252093201477	3.73819690429468	-0.1703954920269343	-1.193863430795595e-07	1.461091691421865e-07	2.080111457970533e-07	8.184744541086649e-08	-2.809111616268594e-07	-1.258546516339568e-07	-2.074869840106697e-08
0.03	-0.04565930743201215	0.07130431388336492	0.8959320078755	0.1981384188041426	-0.320499569547585	-0.5295582044817684	-0.1389061178761244	0.07387894787477463	0.07387894787478005	-0.174416336126521	-0.1630819763916614	-0.0653138023331592	0.006880507957075615	-0.03915505352946934	-0.004004400269111147	-0.0161910344765918	0.1716323511303002	-0.06114609509628113	0.08973849126131024	-0.06503811525125633	0.2450436624567464	0.2450436624567456	0.007861336099539219	-0.003664883268912766	0.1116154777147932	-0.006021828485761161	0.08429309324849128	-0.1278340117997324	-0.03986332150060184	-0.2530402116543344	0.2463272778777584	-0.001765840293751577	-0.0246616448728332	43.97007872372644	-11.00435108194455	6.070152060401524	-36.41155081067031	-524.3898372372508	-95.07846794873983	-41.28184301745203	-1.191501812554726	-0.1294832783945886	-0.5223562893878213	5.398134160487155	-1.931982988897941	2.896854903597429	-2.043776835807334	7.760361218895973	7.760361218895824	0.2402911216194575	-0.06755634054915774	3.536825016313822	-0.1868873157240667	-1.487912681139592e-07	1.551629398607353e-07	2.570809231415692e-07	1.021325124834541e-07	-3.833993724373272e-07	-1.647481484287122e-07	-2.713224096964918e-08
0.04	-0.04611197024089354	0.07125764683184374	0.8957436797067528	0.2001268591525209	-0.3212069502206592	-0.5285183292377235	-0.1396544695146155	0.07671756920597132	0.07671756920595645	-0.1743248046216146	-0.163124417606222	-0.06402105908588961	0.006811540602916768	-0.05129646014483053	-0.005332497294385829	-0.02146855100000376	0.2258007760641927	-0.08022260796085436	0.118108176002648	-0.08445439102278475	0.3223100320271186	0.3223100320271185	0.01042642897615832	-0.004818970697453286	0.1467527989360857	-0.007755241667788873	0.08010806419479206	-0.1204868670863359	-0.0388570525327504	-0.246482498926811	0.2382412504388763	-0.003313395740677677	-0.02137641111824153	41.35343929511971	-10.04483632638499	6.112209650544956	-34.54683346076997	-524.0048060278151	-92.40004956771593	-41.33277201050981	-1.283703732974341	-0.1384493690071596	-0.5402434374719759	5.530780974878884	-1.891134826834569	2.755759141563777	-1.790675483216164	7.770351637805526	7.770351637805462	0.2944044617104177	-0.2124758798347648	3.521676447867212	-0.1510785569336505	-1.780971285883586e-07	1.635932980397741e-07	3.062966028716662e-07	1.22190237606159e-07	-4.853015821918016e-07	-2.038805643202996e-07	-3.35859658250306e-08
0.05	-0.04668403364989318	0.07119764929481374	0.8955026040739329	0.2026500174529929	-0.3221018117839101	-0.527198725756055	-0.1405913541357516	0.08031811964319756	0.08031811964314785	-0.1742080439015654	-0.163178542312479	-0.06238213651238535	0.006725904963776883	-0.06304229271738211	-0.006663881256133189	-0.02674907556698733	0.2785785144982024	-0.09862613891664697	0.145693312600836	-0.102750867131819	0.3974130778054862	0.3974130778054891	0.01291566851365201	-0.005988844925253516	0.1808529577828757	-0.009338400189499803	0.07607959843914849	-0.1161557727960679	-0.03788168847285072	-0.2409298340724795	0.2295727316269251	-0.002332031056370917	-0.01820610092192948	38.61876045404096	-10.08209272190802	6.220804494224719	-32.75493617874658	-523.9830595230212	-92.06259640165941	-41.39563360121713	-1.108950679233988	-0.1299889797201343	-0.5224298506233419	5.113389457963947	-1.796480038947604	2.741970974408013	-1.823383766130983	7.322241175976482	7.322241175976595	0.2247432707266269	-0.06663709625285702	3.327357735145607	-0.1569703632244484	-1.995438063020794e-07	1.688692504161819e-07	3.423158030793346e-07	1.3776219041045e-07	-5.632398934186067e-07	-2.323164314656616e-07	-3.806095296399336e-08
0.06	-0.04737134091652501	0.07112443670417472	0.895208628618581	0.2056933769738947	-0.3231770122185346	-0.5256068548973171	-0.1417060535362406	0.08465809256377256	0.08465809256375795	-0.17406667887193	-0.1632438445414898	-0.06040757792399833	0.006625430566734916	-0.07434523168365829	-0.007975508016195327	-0.03204851550642011	0.3298410201442465	-0.116290382232268	0.1725616514174849	-0.1200173468963398	0.4701945287088253	0.4701945287088312	0.01534729088946562	-0.007054475233066205	0.2138800019121069	-0.01072299324858621	0.07205113268340881	-0.1118246785057889	-0.03690632441253322	-0.2353771692182295	0.220904212814974	-0.001350666372056722	-0.01503579072569017	35.93054578094935	-10.12638231444682	6.32926242479003	-31.16062911581698	-523.3376773363024	-91.59485323642369	-41.46885480606596	-1.195125011720086	-0.1344979286695496	-0.5440265119618528	5.227734417285765	-1.743277298800446	2.612399585255945	-1.584676214314246	7.306032662799758	7.306032662799667	0.2828810293739238	-0.1916270958371452	3.307053504355984	-0.1113654644086549	-2.206595710574558e-07	1.74012385706163e-07	3.777793620439534e-07	1.531452685908078e-07	-6.40169198391615e-07	-2.603019176111825e-07	-4.245262483068586e-08
